<?xml version="1.0" encoding="UTF-8" standalone="no"?>
<!-- Uploaded to: SVG Repo, www.svgrepo.com, Generator: SVG Repo Mixer Tools -->

<svg
   fill="#000000"
   width="512"
   height="512"
   viewBox="0 0 12.8 12.8"
   version="1.1"
   id="svg1"
   sodipodi:docname="favicon.svg"
   inkscape:version="1.4.2 (f4327f4, 2025-05-13)"
   inkscape:export-filename="address-svgrepo-com.png"
   inkscape:export-xdpi="96"
   inkscape:export-ydpi="96"
   xmlns:inkscape="http://www.inkscape.org/namespaces/inkscape"
   xmlns:sodipodi="http://sodipodi.sourceforge.net/DTD/sodipodi-0.dtd"
   xmlns="http://www.w3.org/2000/svg"
   xmlns:svg="http://www.w3.org/2000/svg">
  <defs
     id="defs1" />
  <sodipodi:namedview
     id="namedview1"
     pagecolor="#ffffff"
     bordercolor="#000000"
     borderopacity="0.25"
     inkscape:showpageshadow="2"
     inkscape:pageopacity="0.0"
     inkscape:pagecheckerboard="0"
     inkscape:deskcolor="#d1d1d1"
     inkscape:zoom="0.90686444"
     inkscape:cx="237.63199"
     inkscape:cy="212.26987"
     inkscape:window-width="1366"
     inkscape:window-height="715"
     inkscape:window-x="-8"
     inkscape:window-y="-8"
     inkscape:window-maximized="1"
     inkscape:current-layer="svg1" />
  <g
     id="g3"
     transform="translate(-0.49621529,0.05513503)">
    <path
       id="path14-2"
       style="fill:#ffffff;stroke:#ffffff;stroke-width:0.375;stroke-dasharray:none;stroke-opacity:1"
       d="m 5.6400878,1.8851074 c -0.1492662,0 -0.2702636,0.1210461 -0.2702636,0.2703125 V 3.721289 H 3.7251465 c -0.08973,0 -0.2000075,0.020002 -0.3064942,0.053516 -0.1070272,0.03243 -0.2092081,0.07732 -0.2816406,0.127588 l -1.2837891,0.98916 c -0.072973,0.04919 -0.1086425,0.115157 -0.1086425,0.181103 0,0.06541 0.03567,0.130785 0.1086425,0.181055 l 1.2837891,0.990283 c 0.072433,0.04919 0.1746134,0.094565 0.2816406,0.127002 0.1064867,0.03297 0.2167644,0.052979 0.3064942,0.052979 h 1.6446777 v 4.920654 c 0,0.149266 0.1209974,0.270264 0.2702636,0.270264 H 6.180664 c 0.1492668,0 0.2702637,-0.120998 0.2702637,-0.270264 V 2.1554199 c 0,-0.1492664 -0.1209969,-0.2703125 -0.2702637,-0.2703125 z m 1.2396485,0.7550781 0.432959,2.7027344 h 3.2621587 c 0.08865,0 0.19947,-0.020009 0.305957,-0.052979 0.106486,-0.03297 0.209207,-0.078399 0.28164,-0.127587 l 1.283789,-0.990235 c 0.07297,-0.04919 0.10918,-0.11462 0.10918,-0.180566 0,-0.06595 -0.03621,-0.131325 -0.108643,-0.181055 L 11.162988,2.821289 A 1.0794612,1.0794612 0 0 0 10.881348,2.693164 1.1000018,1.1000018 0 0 0 10.574854,2.640186 Z" />
    <g
       id="g2"
       transform="translate(0.75,0.35)">
      <g
         id="g1">
        <path
           style="fill:#008000;stroke-width:0.540541"
           d="M 4.7783758,3.3712822 H 2.9751296 c -0.08973,0 -0.2000003,0.02 -0.306487,0.053514 -0.1070272,0.032433 -0.2091895,0.077297 -0.281622,0.1275678 L 1.1032347,4.5415543 c -0.072973,0.049189 -0.1086488,0.1151354 -0.1086488,0.1810814 0,0.065406 0.0356757,0.130811 0.1086488,0.1810814 l 1.2837859,0.9902718 c 0.072433,0.049189 0.1745948,0.094595 0.281622,0.1270273 0.1064867,0.032973 0.2167572,0.052973 0.306487,0.052973 h 1.8032462 z"
           id="path14"
           sodipodi:nodetypes="cscccscccscc" />
        <path
           style="fill:#0000ff;stroke-width:0.540541"
           d="M 11.696765,3.4604715 10.412979,2.4712807 A 1.0794612,1.0794612 0 0 0 10.131357,2.3431724 1.1000018,1.1000018 0 0 0 9.8248704,2.2901994 H 6.1297293 l 0.4329737,2.702707 h 3.2621674 c 0.088649,0 0.1994596,-0.02 0.3059466,-0.052973 0.106486,-0.032973 0.209189,-0.078379 0.281622,-0.1275678 l 1.283786,-0.9902719 c 0.07297,-0.049189 0.109189,-0.1145948 0.109189,-0.1805408 0,-0.065946 -0.03622,-0.1313516 -0.108649,-0.1810814 z"
           id="path1" />
        <path
           style="fill:#000000;stroke-width:0.540541"
           d="M 5.4306604,1.5351273 H 4.890119 c -0.1492662,0 -0.2702707,0.1210043 -0.2702707,0.2702707 v 9.189204 c 0,0.149266 0.1210045,0.270271 0.2702707,0.270271 h 0.5405414 c 0.1492668,0 0.2702707,-0.121005 0.2702707,-0.270271 V 1.805398 c 0,-0.1492664 -0.1210039,-0.2702707 -0.2702707,-0.2702707 z"
           id="path14-8"
           sodipodi:nodetypes="sssssssss" />
      </g>
      <text
         xml:space="preserve"
         style="font-style:normal;font-variant:normal;font-weight:bold;font-stretch:normal;font-size:1.38969px;font-family:Calibri;-inkscape-font-specification:'Calibri Bold';text-align:start;writing-mode:lr-tb;direction:ltr;text-anchor:start;fill:#ffffff;stroke-width:0.115807"
         x="1.8027501"
         y="5.1389585"
         id="text14"><tspan
           sodipodi:role="line"
           id="tspan14"
           style="font-style:normal;font-variant:normal;font-weight:bold;font-stretch:normal;font-family:Calibri;-inkscape-font-specification:'Calibri Bold';fill:#ffffff;stroke-width:0.115807"
           x="1.8027501"
           y="5.1389585">FREE</tspan></text>
      <text
         xml:space="preserve"
         style="font-style:normal;font-variant:normal;font-weight:bold;font-stretch:normal;font-size:2.40357px;font-family:Calibri;-inkscape-font-specification:'Calibri Bold';text-align:start;writing-mode:lr-tb;direction:ltr;text-anchor:start;fill:#ffffff;stroke-width:0.200298"
         x="6.9565792"
         y="4.4379759"
         id="text14-5"><tspan
           sodipodi:role="line"
           id="tspan14-5"
           style="font-style:normal;font-variant:normal;font-weight:bold;font-stretch:normal;font-family:Calibri;-inkscape-font-specification:'Calibri Bold';fill:#ffffff;stroke-width:0.200298"
           x="6.9565792"
           y="4.4379759">CEP</tspan></text>
    </g>
  </g>
</svg>
